<svg xmlns="http://www.w3.org/2000/svg" xmlns:xlink="http://www.w3.org/1999/xlink" width="1080" zoomAndPan="magnify" viewBox="0 0 810 1439.999935" height="1920" preserveAspectRatio="xMidYMid meet" version="1.0"><defs><g/><clipPath id="d078094d8d"><path d="M 283.238281 408.265625 L 517.238281 408.265625 L 517.238281 678.265625 L 283.238281 678.265625 Z M 283.238281 408.265625 " clip-rule="nonzero"/></clipPath><clipPath id="c5d9e657e5"><path d="M 400.132812 408.269531 L 458.636719 441.984375 L 517.027344 475.804688 L 517.027344 516.789062 L 481.554688 516.789062 L 481.554688 631.261719 L 517.027344 610.769531 L 517.027344 516.789062 L 481.554688 496.296875 L 440.898438 472.832031 L 400.132812 449.253906 L 359.480469 472.832031 L 318.824219 496.296875 L 283.238281 516.789062 L 283.238281 610.769531 L 318.824219 631.261719 L 318.824219 516.789062 L 283.238281 516.789062 L 283.238281 475.804688 L 341.742188 441.984375 Z M 370.609375 513.707031 L 394.183594 513.707031 L 394.183594 537.285156 L 370.609375 537.285156 Z M 406.195312 513.707031 L 429.660156 513.707031 L 429.660156 537.285156 L 406.195312 537.285156 Z M 429.660156 549.292969 L 429.660156 572.871094 L 406.195312 572.871094 L 406.195312 549.292969 Z M 394.183594 572.871094 L 370.609375 572.871094 L 370.609375 549.292969 L 394.183594 549.292969 Z M 336.5625 641.507812 L 341.742188 644.484375 L 400.132812 678.304688 L 458.636719 644.484375 L 463.816406 641.507812 L 463.816406 600.523438 L 440.898438 613.742188 L 400.132812 637.210938 L 359.480469 613.742188 L 336.5625 600.523438 Z M 336.5625 641.507812 " clip-rule="evenodd"/></clipPath><linearGradient x1="70.793721" gradientTransform="matrix(0.110174, 0, 0, 0.110174, 283.239905, 408.269612)" y1="2505.401033" x2="2051.576014" gradientUnits="userSpaceOnUse" y2="-54.492549" id="10ca5461d2"><stop stop-opacity="1" stop-color="rgb(1.199341%, 59.599304%, 61.999512%)" offset="0"/><stop stop-opacity="1" stop-color="rgb(1.199341%, 59.599304%, 61.999512%)" offset="0.125"/><stop stop-opacity="1" stop-color="rgb(1.199341%, 59.599304%, 61.999512%)" offset="0.15625"/><stop stop-opacity="1" stop-color="rgb(1.199341%, 59.599304%, 61.999512%)" offset="0.171875"/><stop stop-opacity="1" stop-color="rgb(1.199341%, 59.599304%, 61.999512%)" offset="0.179687"/><stop stop-opacity="1" stop-color="rgb(1.481628%, 59.74884%, 61.834717%)" offset="0.183594"/><stop stop-opacity="1" stop-color="rgb(1.765442%, 59.898376%, 61.671448%)" offset="0.1875"/><stop stop-opacity="1" stop-color="rgb(2.059937%, 60.054016%, 61.500549%)" offset="0.191406"/><stop stop-opacity="1" stop-color="rgb(2.354431%, 60.209656%, 61.331177%)" offset="0.195312"/><stop stop-opacity="1" stop-color="rgb(2.6474%, 60.365295%, 61.160278%)" offset="0.199219"/><stop stop-opacity="1" stop-color="rgb(2.941895%, 60.520935%, 60.990906%)" offset="0.203125"/><stop stop-opacity="1" stop-color="rgb(3.236389%, 60.676575%, 60.820007%)" offset="0.207031"/><stop stop-opacity="1" stop-color="rgb(3.530884%, 60.832214%, 60.650635%)" offset="0.210938"/><stop stop-opacity="1" stop-color="rgb(3.823853%, 60.987854%, 60.479736%)" offset="0.214844"/><stop stop-opacity="1" stop-color="rgb(4.118347%, 61.143494%, 60.308838%)" offset="0.21875"/><stop stop-opacity="1" stop-color="rgb(4.412842%, 61.299133%, 60.137939%)" offset="0.222656"/><stop stop-opacity="1" stop-color="rgb(4.707336%, 61.454773%, 59.968567%)" offset="0.226562"/><stop stop-opacity="1" stop-color="rgb(5.000305%, 61.610413%, 59.797668%)" offset="0.230469"/><stop stop-opacity="1" stop-color="rgb(5.2948%, 61.766052%, 59.628296%)" offset="0.234375"/><stop stop-opacity="1" stop-color="rgb(5.589294%, 61.921692%, 59.457397%)" offset="0.238281"/><stop stop-opacity="1" stop-color="rgb(5.883789%, 62.077332%, 59.288025%)" offset="0.242187"/><stop stop-opacity="1" stop-color="rgb(6.176758%, 62.232971%, 59.117126%)" offset="0.246094"/><stop stop-opacity="1" stop-color="rgb(6.471252%, 62.388611%, 58.947754%)" offset="0.25"/><stop stop-opacity="1" stop-color="rgb(6.765747%, 62.54425%, 58.776855%)" offset="0.253906"/><stop stop-opacity="1" stop-color="rgb(7.060242%, 62.69989%, 58.605957%)" offset="0.257812"/><stop stop-opacity="1" stop-color="rgb(7.354736%, 62.85553%, 58.435059%)" offset="0.261719"/><stop stop-opacity="1" stop-color="rgb(7.649231%, 63.011169%, 58.265686%)" offset="0.265625"/><stop stop-opacity="1" stop-color="rgb(7.9422%, 63.166809%, 58.094788%)" offset="0.269531"/><stop stop-opacity="1" stop-color="rgb(8.236694%, 63.322449%, 57.925415%)" offset="0.273437"/><stop stop-opacity="1" stop-color="rgb(8.531189%, 63.478088%, 57.754517%)" offset="0.277344"/><stop stop-opacity="1" stop-color="rgb(8.825684%, 63.633728%, 57.585144%)" offset="0.28125"/><stop stop-opacity="1" stop-color="rgb(9.118652%, 63.789368%, 57.414246%)" offset="0.285156"/><stop stop-opacity="1" stop-color="rgb(9.413147%, 63.945007%, 57.244873%)" offset="0.289062"/><stop stop-opacity="1" stop-color="rgb(9.707642%, 64.100647%, 57.073975%)" offset="0.292969"/><stop stop-opacity="1" stop-color="rgb(10.002136%, 64.256287%, 56.904602%)" offset="0.296875"/><stop stop-opacity="1" stop-color="rgb(10.295105%, 64.411926%, 56.733704%)" offset="0.300781"/><stop stop-opacity="1" stop-color="rgb(10.5896%, 64.567566%, 56.562805%)" offset="0.304688"/><stop stop-opacity="1" stop-color="rgb(10.884094%, 64.723206%, 56.391907%)" offset="0.308594"/><stop stop-opacity="1" stop-color="rgb(11.178589%, 64.878845%, 56.222534%)" offset="0.3125"/><stop stop-opacity="1" stop-color="rgb(11.471558%, 65.034485%, 56.051636%)" offset="0.316406"/><stop stop-opacity="1" stop-color="rgb(11.766052%, 65.190125%, 55.882263%)" offset="0.320312"/><stop stop-opacity="1" stop-color="rgb(12.060547%, 65.345764%, 55.711365%)" offset="0.324219"/><stop stop-opacity="1" stop-color="rgb(12.355042%, 65.501404%, 55.541992%)" offset="0.328125"/><stop stop-opacity="1" stop-color="rgb(12.64801%, 65.657043%, 55.371094%)" offset="0.332031"/><stop stop-opacity="1" stop-color="rgb(12.942505%, 65.812683%, 55.201721%)" offset="0.335938"/><stop stop-opacity="1" stop-color="rgb(13.237%, 65.968323%, 55.030823%)" offset="0.339844"/><stop stop-opacity="1" stop-color="rgb(13.531494%, 66.123962%, 54.86145%)" offset="0.34375"/><stop stop-opacity="1" stop-color="rgb(13.825989%, 66.279602%, 54.690552%)" offset="0.347656"/><stop stop-opacity="1" stop-color="rgb(14.120483%, 66.435242%, 54.519653%)" offset="0.351562"/><stop stop-opacity="1" stop-color="rgb(14.413452%, 66.590881%, 54.348755%)" offset="0.355469"/><stop stop-opacity="1" stop-color="rgb(14.707947%, 66.746521%, 54.179382%)" offset="0.359375"/><stop stop-opacity="1" stop-color="rgb(15.002441%, 66.902161%, 54.008484%)" offset="0.363281"/><stop stop-opacity="1" stop-color="rgb(15.296936%, 67.0578%, 53.839111%)" offset="0.367187"/><stop stop-opacity="1" stop-color="rgb(15.589905%, 67.21344%, 53.668213%)" offset="0.371094"/><stop stop-opacity="1" stop-color="rgb(15.884399%, 67.36908%, 53.49884%)" offset="0.375"/><stop stop-opacity="1" stop-color="rgb(16.178894%, 67.524719%, 53.327942%)" offset="0.378906"/><stop stop-opacity="1" stop-color="rgb(16.473389%, 67.680359%, 53.158569%)" offset="0.382812"/><stop stop-opacity="1" stop-color="rgb(16.766357%, 67.835999%, 52.987671%)" offset="0.386719"/><stop stop-opacity="1" stop-color="rgb(17.060852%, 67.991638%, 52.818298%)" offset="0.390625"/><stop stop-opacity="1" stop-color="rgb(17.355347%, 68.147278%, 52.6474%)" offset="0.394531"/><stop stop-opacity="1" stop-color="rgb(17.649841%, 68.302917%, 52.476501%)" offset="0.398437"/><stop stop-opacity="1" stop-color="rgb(17.94281%, 68.458557%, 52.305603%)" offset="0.402344"/><stop stop-opacity="1" stop-color="rgb(18.237305%, 68.614197%, 52.13623%)" offset="0.40625"/><stop stop-opacity="1" stop-color="rgb(18.531799%, 68.769836%, 51.965332%)" offset="0.410156"/><stop stop-opacity="1" stop-color="rgb(18.826294%, 68.925476%, 51.795959%)" offset="0.414062"/><stop stop-opacity="1" stop-color="rgb(19.120789%, 69.07959%, 51.625061%)" offset="0.417969"/><stop stop-opacity="1" stop-color="rgb(19.415283%, 69.235229%, 51.455688%)" offset="0.421875"/><stop stop-opacity="1" stop-color="rgb(19.708252%, 69.390869%, 51.28479%)" offset="0.425781"/><stop stop-opacity="1" stop-color="rgb(20.002747%, 69.546509%, 51.115417%)" offset="0.429688"/><stop stop-opacity="1" stop-color="rgb(20.297241%, 69.702148%, 50.944519%)" offset="0.433594"/><stop stop-opacity="1" stop-color="rgb(20.591736%, 69.857788%, 50.775146%)" offset="0.4375"/><stop stop-opacity="1" stop-color="rgb(20.884705%, 70.013428%, 50.604248%)" offset="0.441406"/><stop stop-opacity="1" stop-color="rgb(21.179199%, 70.169067%, 50.43335%)" offset="0.445312"/><stop stop-opacity="1" stop-color="rgb(21.473694%, 70.324707%, 50.262451%)" offset="0.449219"/><stop stop-opacity="1" stop-color="rgb(21.768188%, 70.480347%, 50.093079%)" offset="0.453125"/><stop stop-opacity="1" stop-color="rgb(22.061157%, 70.635986%, 49.92218%)" offset="0.457031"/><stop stop-opacity="1" stop-color="rgb(22.355652%, 70.791626%, 49.752808%)" offset="0.460938"/><stop stop-opacity="1" stop-color="rgb(22.650146%, 70.947266%, 49.581909%)" offset="0.464844"/><stop stop-opacity="1" stop-color="rgb(22.944641%, 71.102905%, 49.412537%)" offset="0.46875"/><stop stop-opacity="1" stop-color="rgb(23.23761%, 71.258545%, 49.241638%)" offset="0.472656"/><stop stop-opacity="1" stop-color="rgb(23.532104%, 71.414185%, 49.072266%)" offset="0.476562"/><stop stop-opacity="1" stop-color="rgb(23.826599%, 71.569824%, 48.901367%)" offset="0.480469"/><stop stop-opacity="1" stop-color="rgb(24.121094%, 71.725464%, 48.731995%)" offset="0.484375"/><stop stop-opacity="1" stop-color="rgb(24.414062%, 71.881104%, 48.561096%)" offset="0.488281"/><stop stop-opacity="1" stop-color="rgb(24.708557%, 72.036743%, 48.390198%)" offset="0.492187"/><stop stop-opacity="1" stop-color="rgb(25.003052%, 72.192383%, 48.219299%)" offset="0.496094"/><stop stop-opacity="1" stop-color="rgb(25.297546%, 72.348022%, 48.049927%)" offset="0.5"/><stop stop-opacity="1" stop-color="rgb(25.592041%, 72.503662%, 47.879028%)" offset="0.503906"/><stop stop-opacity="1" stop-color="rgb(25.886536%, 72.659302%, 47.709656%)" offset="0.507812"/><stop stop-opacity="1" stop-color="rgb(26.179504%, 72.814941%, 47.538757%)" offset="0.511719"/><stop stop-opacity="1" stop-color="rgb(26.473999%, 72.970581%, 47.369385%)" offset="0.515625"/><stop stop-opacity="1" stop-color="rgb(26.768494%, 73.126221%, 47.198486%)" offset="0.519531"/><stop stop-opacity="1" stop-color="rgb(27.062988%, 73.28186%, 47.029114%)" offset="0.523438"/><stop stop-opacity="1" stop-color="rgb(27.355957%, 73.4375%, 46.858215%)" offset="0.527344"/><stop stop-opacity="1" stop-color="rgb(27.650452%, 73.59314%, 46.687317%)" offset="0.53125"/><stop stop-opacity="1" stop-color="rgb(27.944946%, 73.748779%, 46.516418%)" offset="0.535156"/><stop stop-opacity="1" stop-color="rgb(28.239441%, 73.904419%, 46.347046%)" offset="0.539062"/><stop stop-opacity="1" stop-color="rgb(28.53241%, 74.060059%, 46.176147%)" offset="0.542969"/><stop stop-opacity="1" stop-color="rgb(28.826904%, 74.215698%, 46.006775%)" offset="0.546875"/><stop stop-opacity="1" stop-color="rgb(29.121399%, 74.371338%, 45.835876%)" offset="0.550781"/><stop stop-opacity="1" stop-color="rgb(29.415894%, 74.526978%, 45.666504%)" offset="0.554688"/><stop stop-opacity="1" stop-color="rgb(29.708862%, 74.682617%, 45.495605%)" offset="0.558594"/><stop stop-opacity="1" stop-color="rgb(30.003357%, 74.838257%, 45.326233%)" offset="0.5625"/><stop stop-opacity="1" stop-color="rgb(30.297852%, 74.993896%, 45.155334%)" offset="0.566406"/><stop stop-opacity="1" stop-color="rgb(30.592346%, 75.149536%, 44.985962%)" offset="0.570312"/><stop stop-opacity="1" stop-color="rgb(30.886841%, 75.305176%, 44.815063%)" offset="0.574219"/><stop stop-opacity="1" stop-color="rgb(31.181335%, 75.460815%, 44.644165%)" offset="0.578125"/><stop stop-opacity="1" stop-color="rgb(31.474304%, 75.616455%, 44.473267%)" offset="0.582031"/><stop stop-opacity="1" stop-color="rgb(31.768799%, 75.772095%, 44.303894%)" offset="0.585937"/><stop stop-opacity="1" stop-color="rgb(32.063293%, 75.927734%, 44.132996%)" offset="0.589844"/><stop stop-opacity="1" stop-color="rgb(32.357788%, 76.083374%, 43.963623%)" offset="0.59375"/><stop stop-opacity="1" stop-color="rgb(32.650757%, 76.239014%, 43.792725%)" offset="0.597656"/><stop stop-opacity="1" stop-color="rgb(32.945251%, 76.394653%, 43.623352%)" offset="0.601562"/><stop stop-opacity="1" stop-color="rgb(33.239746%, 76.550293%, 43.452454%)" offset="0.605469"/><stop stop-opacity="1" stop-color="rgb(33.534241%, 76.705933%, 43.283081%)" offset="0.609375"/><stop stop-opacity="1" stop-color="rgb(33.827209%, 76.861572%, 43.112183%)" offset="0.613281"/><stop stop-opacity="1" stop-color="rgb(34.121704%, 77.017212%, 42.94281%)" offset="0.617187"/><stop stop-opacity="1" stop-color="rgb(34.416199%, 77.172852%, 42.771912%)" offset="0.621094"/><stop stop-opacity="1" stop-color="rgb(34.710693%, 77.328491%, 42.601013%)" offset="0.625"/><stop stop-opacity="1" stop-color="rgb(35.003662%, 77.484131%, 42.430115%)" offset="0.628906"/><stop stop-opacity="1" stop-color="rgb(35.298157%, 77.639771%, 42.260742%)" offset="0.632812"/><stop stop-opacity="1" stop-color="rgb(35.592651%, 77.79541%, 42.089844%)" offset="0.636719"/><stop stop-opacity="1" stop-color="rgb(35.887146%, 77.95105%, 41.920471%)" offset="0.640625"/><stop stop-opacity="1" stop-color="rgb(36.180115%, 78.106689%, 41.749573%)" offset="0.644531"/><stop stop-opacity="1" stop-color="rgb(36.474609%, 78.262329%, 41.5802%)" offset="0.648437"/><stop stop-opacity="1" stop-color="rgb(36.769104%, 78.417969%, 41.409302%)" offset="0.652344"/><stop stop-opacity="1" stop-color="rgb(37.063599%, 78.573608%, 41.239929%)" offset="0.65625"/><stop stop-opacity="1" stop-color="rgb(37.358093%, 78.729248%, 41.069031%)" offset="0.660156"/><stop stop-opacity="1" stop-color="rgb(37.652588%, 78.884888%, 40.899658%)" offset="0.664062"/><stop stop-opacity="1" stop-color="rgb(37.945557%, 79.040527%, 40.72876%)" offset="0.667969"/><stop stop-opacity="1" stop-color="rgb(38.240051%, 79.196167%, 40.557861%)" offset="0.671875"/><stop stop-opacity="1" stop-color="rgb(38.534546%, 79.351807%, 40.386963%)" offset="0.675781"/><stop stop-opacity="1" stop-color="rgb(38.829041%, 79.507446%, 40.21759%)" offset="0.679687"/><stop stop-opacity="1" stop-color="rgb(39.122009%, 79.663086%, 40.046692%)" offset="0.683594"/><stop stop-opacity="1" stop-color="rgb(39.416504%, 79.818726%, 39.877319%)" offset="0.6875"/><stop stop-opacity="1" stop-color="rgb(39.710999%, 79.974365%, 39.706421%)" offset="0.691406"/><stop stop-opacity="1" stop-color="rgb(40.005493%, 80.130005%, 39.537048%)" offset="0.695312"/><stop stop-opacity="1" stop-color="rgb(40.298462%, 80.285645%, 39.36615%)" offset="0.699219"/><stop stop-opacity="1" stop-color="rgb(40.592957%, 80.441284%, 39.196777%)" offset="0.703125"/><stop stop-opacity="1" stop-color="rgb(40.887451%, 80.596924%, 39.025879%)" offset="0.707031"/><stop stop-opacity="1" stop-color="rgb(41.181946%, 80.752563%, 38.856506%)" offset="0.710937"/><stop stop-opacity="1" stop-color="rgb(41.474915%, 80.906677%, 38.685608%)" offset="0.714844"/><stop stop-opacity="1" stop-color="rgb(41.769409%, 81.062317%, 38.514709%)" offset="0.71875"/><stop stop-opacity="1" stop-color="rgb(42.063904%, 81.217957%, 38.343811%)" offset="0.722656"/><stop stop-opacity="1" stop-color="rgb(42.358398%, 81.373596%, 38.174438%)" offset="0.726562"/><stop stop-opacity="1" stop-color="rgb(42.652893%, 81.529236%, 38.00354%)" offset="0.730469"/><stop stop-opacity="1" stop-color="rgb(42.947388%, 81.684875%, 37.834167%)" offset="0.734375"/><stop stop-opacity="1" stop-color="rgb(43.240356%, 81.840515%, 37.663269%)" offset="0.738281"/><stop stop-opacity="1" stop-color="rgb(43.534851%, 81.996155%, 37.493896%)" offset="0.742188"/><stop stop-opacity="1" stop-color="rgb(43.829346%, 82.151794%, 37.322998%)" offset="0.746094"/><stop stop-opacity="1" stop-color="rgb(44.12384%, 82.307434%, 37.153625%)" offset="0.75"/><stop stop-opacity="1" stop-color="rgb(44.416809%, 82.463074%, 36.982727%)" offset="0.753906"/><stop stop-opacity="1" stop-color="rgb(44.711304%, 82.618713%, 36.813354%)" offset="0.757812"/><stop stop-opacity="1" stop-color="rgb(45.005798%, 82.774353%, 36.642456%)" offset="0.761719"/><stop stop-opacity="1" stop-color="rgb(45.300293%, 82.929993%, 36.471558%)" offset="0.765625"/><stop stop-opacity="1" stop-color="rgb(45.593262%, 83.085632%, 36.300659%)" offset="0.769531"/><stop stop-opacity="1" stop-color="rgb(45.887756%, 83.241272%, 36.131287%)" offset="0.773438"/><stop stop-opacity="1" stop-color="rgb(46.182251%, 83.396912%, 35.960388%)" offset="0.777344"/><stop stop-opacity="1" stop-color="rgb(46.476746%, 83.552551%, 35.791016%)" offset="0.78125"/><stop stop-opacity="1" stop-color="rgb(46.769714%, 83.708191%, 35.620117%)" offset="0.785156"/><stop stop-opacity="1" stop-color="rgb(47.064209%, 83.863831%, 35.450745%)" offset="0.789062"/><stop stop-opacity="1" stop-color="rgb(47.358704%, 84.01947%, 35.279846%)" offset="0.792969"/><stop stop-opacity="1" stop-color="rgb(47.653198%, 84.17511%, 35.110474%)" offset="0.796875"/><stop stop-opacity="1" stop-color="rgb(47.946167%, 84.33075%, 34.939575%)" offset="0.800781"/><stop stop-opacity="1" stop-color="rgb(48.240662%, 84.486389%, 34.768677%)" offset="0.804687"/><stop stop-opacity="1" stop-color="rgb(48.535156%, 84.642029%, 34.597778%)" offset="0.808594"/><stop stop-opacity="1" stop-color="rgb(48.829651%, 84.797668%, 34.428406%)" offset="0.8125"/><stop stop-opacity="1" stop-color="rgb(49.113464%, 84.94873%, 34.263611%)" offset="0.816406"/><stop stop-opacity="1" stop-color="rgb(49.398804%, 85.099792%, 34.098816%)" offset="0.820312"/><stop stop-opacity="1" stop-color="rgb(49.398804%, 85.099792%, 34.098816%)" offset="0.828125"/><stop stop-opacity="1" stop-color="rgb(49.398804%, 85.099792%, 34.098816%)" offset="0.84375"/><stop stop-opacity="1" stop-color="rgb(49.398804%, 85.099792%, 34.098816%)" offset="0.875"/><stop stop-opacity="1" stop-color="rgb(49.398804%, 85.099792%, 34.098816%)" offset="1"/></linearGradient></defs><rect x="-81" width="972" fill="#ffffff" y="-143.999994" height="1727.999922" fill-opacity="1"/><rect x="-81" width="972" fill="#008388" y="-143.999994" height="1727.999922" fill-opacity="1"/><g clip-path="url(#d078094d8d)"><g clip-path="url(#c5d9e657e5)"><path fill="url(#10ca5461d2)" d="M 283.238281 408.269531 L 283.238281 678.265625 L 517.027344 678.265625 L 517.027344 408.269531 Z M 283.238281 408.269531 " fill-rule="nonzero"/></g></g><g fill="#7ed957" fill-opacity="1"><g transform="translate(231.157654, 945.84932)"><g><path d="M 29.203125 -56.328125 C 36.285156 -56.328125 42.109375 -54.890625 46.671875 -52.015625 C 51.234375 -49.148438 53.566406 -44.898438 53.671875 -39.265625 L 53.671875 -38.296875 L 37.015625 -38.296875 L 37.015625 -38.625 C 37.015625 -40.226562 36.421875 -41.566406 35.234375 -42.640625 C 34.054688 -43.710938 32.265625 -44.25 29.859375 -44.25 C 27.492188 -44.25 25.679688 -43.898438 24.421875 -43.203125 C 23.160156 -42.515625 22.53125 -41.660156 22.53125 -40.640625 C 22.53125 -39.191406 23.390625 -38.117188 25.109375 -37.421875 C 26.828125 -36.722656 29.585938 -36 33.390625 -35.25 C 37.847656 -34.332031 41.507812 -33.378906 44.375 -32.390625 C 47.25 -31.398438 49.757812 -29.773438 51.90625 -27.515625 C 54.050781 -25.265625 55.148438 -22.207031 55.203125 -18.34375 C 55.203125 -11.800781 52.988281 -6.945312 48.5625 -3.78125 C 44.132812 -0.613281 38.21875 0.96875 30.8125 0.96875 C 22.175781 0.96875 15.457031 -0.476562 10.65625 -3.375 C 5.851562 -6.269531 3.453125 -11.394531 3.453125 -18.75 L 20.28125 -18.75 C 20.28125 -15.957031 21.003906 -14.09375 22.453125 -13.15625 C 23.898438 -12.21875 26.148438 -11.75 29.203125 -11.75 C 31.460938 -11.75 33.328125 -11.988281 34.796875 -12.46875 C 36.273438 -12.957031 37.015625 -13.953125 37.015625 -15.453125 C 37.015625 -16.796875 36.195312 -17.800781 34.5625 -18.46875 C 32.925781 -19.132812 30.253906 -19.84375 26.546875 -20.59375 C 22.046875 -21.5625 18.316406 -22.566406 15.359375 -23.609375 C 12.410156 -24.660156 9.835938 -26.390625 7.640625 -28.796875 C 5.441406 -31.210938 4.34375 -34.488281 4.34375 -38.625 C 4.34375 -44.6875 6.6875 -49.148438 11.375 -52.015625 C 16.070312 -54.890625 22.015625 -56.328125 29.203125 -56.328125 Z M 29.203125 -56.328125 "/></g></g></g><g fill="#7ed957" fill-opacity="1"><g transform="translate(296.821749, 945.84932)"><g><path d="M 53.515625 0 L 53.515625 -19.953125 C 53.515625 -22.421875 53.609375 -24.957031 53.796875 -27.5625 C 53.984375 -30.164062 54.179688 -32.351562 54.390625 -34.125 C 54.609375 -35.894531 54.742188 -37.019531 54.796875 -37.5 L 54.484375 -37.5 L 44.25 0 L 30.34375 0 L 20.03125 -37.421875 L 19.71875 -37.421875 C 19.769531 -36.929688 19.914062 -35.816406 20.15625 -34.078125 C 20.394531 -32.335938 20.617188 -30.164062 20.828125 -27.5625 C 21.046875 -24.957031 21.15625 -22.421875 21.15625 -19.953125 L 21.15625 0 L 4.828125 0 L 4.828125 -55.359375 L 29.9375 -55.359375 L 38.296875 -23.421875 L 38.625 -23.421875 L 46.90625 -55.359375 L 71.140625 -55.359375 L 71.140625 0 Z M 53.515625 0 "/></g></g></g><g fill="#7ed957" fill-opacity="1"><g transform="translate(380.349907, 945.84932)"><g><path d="M 43.046875 0 L 40.71875 -7.8125 L 21.328125 -7.8125 L 18.984375 0 L 0.796875 0 L 21 -55.359375 L 41.6875 -55.359375 L 61.875 0 Z M 25.03125 -20.203125 L 37.015625 -20.203125 L 31.21875 -39.90625 L 30.90625 -39.90625 Z M 25.03125 -20.203125 "/></g></g></g><g fill="#7ed957" fill-opacity="1"><g transform="translate(450.520248, 945.84932)"><g><path d="M 58.5 -38.390625 C 58.5 -35.003906 57.585938 -31.941406 55.765625 -29.203125 C 53.941406 -26.472656 51.285156 -24.460938 47.796875 -23.171875 L 60.109375 0 L 40.15625 0 L 30.34375 -20.203125 L 23.734375 -20.203125 L 23.734375 0 L 5.953125 0 L 5.953125 -55.359375 L 39.828125 -55.359375 C 43.796875 -55.359375 47.1875 -54.59375 50 -53.0625 C 52.820312 -51.539062 54.941406 -49.476562 56.359375 -46.875 C 57.785156 -44.269531 58.5 -41.441406 58.5 -38.390625 Z M 40.390625 -37.65625 C 40.390625 -39.101562 39.90625 -40.3125 38.9375 -41.28125 C 37.976562 -42.25 36.800781 -42.734375 35.40625 -42.734375 L 23.734375 -42.734375 L 23.734375 -32.515625 L 35.40625 -32.515625 C 36.800781 -32.515625 37.976562 -33.007812 38.9375 -34 C 39.90625 -34.988281 40.390625 -36.207031 40.390625 -37.65625 Z M 40.390625 -37.65625 "/></g></g></g><g fill="#7ed957" fill-opacity="1"><g transform="translate(520.690578, 945.84932)"><g><path d="M 37.8125 -41.203125 L 37.8125 0 L 20.03125 0 L 20.03125 -41.203125 L 1.84375 -41.203125 L 1.84375 -55.359375 L 55.921875 -55.359375 L 55.921875 -41.203125 Z M 37.8125 -41.203125 "/></g></g></g><g fill="#7ed957" fill-opacity="1"><g transform="translate(316.123344, 1020.509919)"><g><path d="M 31.4375 0 L 24.40625 0 L 24.40625 -14.359375 L 11.234375 -14.359375 L 11.234375 0 L 4.1875 0 L 4.1875 -33.265625 L 11.234375 -33.265625 L 11.234375 -20.21875 L 24.40625 -20.21875 L 24.40625 -33.265625 L 31.4375 -33.265625 Z M 31.4375 0 "/></g></g></g><g fill="#7ed957" fill-opacity="1"><g transform="translate(354.099716, 1020.509919)"><g><path d="M 34.375 -16.671875 C 34.375 -11.171875 33.007812 -6.941406 30.28125 -3.984375 C 27.550781 -1.023438 23.640625 0.453125 18.546875 0.453125 C 13.441406 0.453125 9.523438 -1.023438 6.796875 -3.984375 C 4.066406 -6.941406 2.703125 -11.1875 2.703125 -16.71875 C 2.703125 -22.257812 4.070312 -26.488281 6.8125 -29.40625 C 9.550781 -32.320312 13.476562 -33.78125 18.59375 -33.78125 C 23.695312 -33.78125 27.601562 -32.304688 30.3125 -29.359375 C 33.019531 -26.421875 34.375 -22.191406 34.375 -16.671875 Z M 10.09375 -16.671875 C 10.09375 -12.960938 10.796875 -10.164062 12.203125 -8.28125 C 13.617188 -6.394531 15.734375 -5.453125 18.546875 -5.453125 C 24.171875 -5.453125 26.984375 -9.191406 26.984375 -16.671875 C 26.984375 -24.171875 24.1875 -27.921875 18.59375 -27.921875 C 15.78125 -27.921875 13.660156 -26.972656 12.234375 -25.078125 C 10.804688 -23.191406 10.09375 -20.390625 10.09375 -16.671875 Z M 10.09375 -16.671875 "/></g></g></g><g fill="#7ed957" fill-opacity="1"><g transform="translate(393.509217, 1020.509919)"><g><path d="M 18.265625 0 L 10.265625 -26.09375 L 10.0625 -26.09375 C 10.34375 -20.78125 10.484375 -17.238281 10.484375 -15.46875 L 10.484375 0 L 4.1875 0 L 4.1875 -33.265625 L 13.78125 -33.265625 L 21.65625 -7.828125 L 21.796875 -7.828125 L 30.140625 -33.265625 L 39.75 -33.265625 L 39.75 0 L 33.171875 0 L 33.171875 -15.75 C 33.171875 -16.488281 33.179688 -17.34375 33.203125 -18.3125 C 33.222656 -19.28125 33.328125 -21.859375 33.515625 -26.046875 L 33.3125 -26.046875 L 24.734375 0 Z M 18.265625 0 "/></g></g></g><g fill="#7ed957" fill-opacity="1"><g transform="translate(439.765954, 1020.509919)"><g><path d="M 23.34375 0 L 4.1875 0 L 4.1875 -33.265625 L 23.34375 -33.265625 L 23.34375 -27.484375 L 11.234375 -27.484375 L 11.234375 -20.1875 L 22.5 -20.1875 L 22.5 -14.40625 L 11.234375 -14.40625 L 11.234375 -5.828125 L 23.34375 -5.828125 Z M 23.34375 0 "/></g></g></g><g fill="#7ed957" fill-opacity="1"><g transform="translate(468.188059, 1020.509919)"><g><path d="M 23.8125 -9.234375 C 23.8125 -6.234375 22.734375 -3.867188 20.578125 -2.140625 C 18.421875 -0.410156 15.414062 0.453125 11.5625 0.453125 C 8.007812 0.453125 4.867188 -0.210938 2.140625 -1.546875 L 2.140625 -8.09375 C 4.378906 -7.09375 6.273438 -6.390625 7.828125 -5.984375 C 9.390625 -5.578125 10.816406 -5.375 12.109375 -5.375 C 13.648438 -5.375 14.832031 -5.664062 15.65625 -6.25 C 16.488281 -6.84375 16.90625 -7.722656 16.90625 -8.890625 C 16.90625 -9.546875 16.722656 -10.125 16.359375 -10.625 C 15.992188 -11.132812 15.457031 -11.625 14.75 -12.09375 C 14.050781 -12.570312 12.613281 -13.328125 10.4375 -14.359375 C 8.40625 -15.316406 6.878906 -16.234375 5.859375 -17.109375 C 4.847656 -17.984375 4.039062 -19.003906 3.4375 -20.171875 C 2.832031 -21.347656 2.53125 -22.71875 2.53125 -24.28125 C 2.53125 -27.21875 3.523438 -29.523438 5.515625 -31.203125 C 7.515625 -32.890625 10.269531 -33.734375 13.78125 -33.734375 C 15.507812 -33.734375 17.160156 -33.53125 18.734375 -33.125 C 20.304688 -32.71875 21.945312 -32.140625 23.65625 -31.390625 L 21.390625 -25.90625 C 19.609375 -26.632812 18.140625 -27.144531 16.984375 -27.4375 C 15.828125 -27.726562 14.6875 -27.875 13.5625 -27.875 C 12.226562 -27.875 11.203125 -27.5625 10.484375 -26.9375 C 9.773438 -26.3125 9.421875 -25.5 9.421875 -24.5 C 9.421875 -23.875 9.5625 -23.332031 9.84375 -22.875 C 10.132812 -22.414062 10.59375 -21.96875 11.21875 -21.53125 C 11.851562 -21.101562 13.347656 -20.328125 15.703125 -19.203125 C 18.804688 -17.710938 20.929688 -16.21875 22.078125 -14.71875 C 23.234375 -13.226562 23.8125 -11.398438 23.8125 -9.234375 Z M 23.8125 -9.234375 "/></g></g></g></svg>